<svg width="14" height="10" viewBox="0 0 14 10" fill="none" xmlns="http://www.w3.org/2000/svg">
<path d="M5.6663 9.73C5.53504 9.73027 5.40501 9.70461 5.28368 9.6545C5.16236 9.60439 5.05212 9.53082 4.9593 9.438L0.717301 5.195C0.621728 5.10282 0.545469 4.99253 0.492976 4.87056C0.440482 4.7486 0.412805 4.6174 0.411558 4.48462C0.410312 4.35184 0.435521 4.22015 0.485715 4.09722C0.535909 3.97429 0.610082 3.86258 0.703908 3.76863C0.797733 3.67467 0.909331 3.60034 1.03219 3.54997C1.15505 3.4996 1.28671 3.4742 1.41949 3.47526C1.55227 3.47632 1.68351 3.50381 1.80555 3.55614C1.92759 3.60846 2.03799 3.68456 2.1303 3.78L5.6653 7.315L12.0303 0.952001C12.2178 0.76436 12.4722 0.658892 12.7374 0.658798C13.0027 0.658705 13.2572 0.763993 13.4448 0.951501C13.6324 1.13901 13.7379 1.39338 13.738 1.65865C13.7381 1.92392 13.6328 2.17836 13.4453 2.366L6.3733 9.438C6.28048 9.53082 6.17024 9.60439 6.04892 9.6545C5.92759 9.70461 5.79757 9.73027 5.6663 9.73Z" fill="#2FAB73"/>
</svg>
